<svg width="41" height="41" viewBox="0 0 41 41" fill="none" xmlns="http://www.w3.org/2000/svg">
<g clip-path="url(#clip0_44_13767)">
<path d="M2.90167 1.5H6.56405C8.49439 1.5 10.0592 3.06485 10.0592 4.99518V4.99518V4.99518C10.0592 7.96223 9.40417 10.8927 8.14081 13.5773L6.45484 17.16L3.76538 23.8908C2.59242 26.8263 1.2132 29.9769 2.00056 33.0385V33.0385V33.0385C2.70312 35.7703 5.54316 37.6508 8.3443 37.9825C8.39573 37.9886 8.44779 37.9944 8.50049 38C10.4697 38.2088 11.7984 38.1631 13.0671 38.0178C14.6126 37.8408 16.5825 36.8468 17.9733 36.15V36.15C19.9221 35.1738 21.6334 35.4113 23.6798 36.1616C24.8387 36.5864 26.1954 37.0854 27.5392 37.5832C29.1679 38.1866 31.2573 38.5382 32.917 38.0265V38.0265C33.1881 37.9429 33.1319 37.9481 33.3919 37.8346C34.1356 37.5099 35.7455 36.755 36.5005 36C37.0565 35.444 37.6126 34.5787 37.9967 33.9201C38.349 33.3161 38.4704 33.2247 38.6322 32.5445V32.5445C38.9212 31.3296 38.5047 29.5186 38.0672 28.3489C36.8985 25.2249 36.1339 23.3566 34.6653 19.9725C33.8257 18.0377 32.7214 15.6134 31.7855 13.5849C30.5427 10.8908 29.8834 7.96212 29.8834 4.99518V4.99518V4.99518C29.8834 3.06485 31.4483 1.5 33.3786 1.5H36.4676" stroke="#3476F2" stroke-width="3.6044"/>
<path fill-rule="evenodd" clip-rule="evenodd" d="M24.8284 26.8284L19.9289 31.7279L15.8765 27.6755L13.7552 29.7969L17.8076 33.8492L19.9289 35.9706L22.0502 33.8492L26.9497 28.9497C30.8272 25.0723 30.8272 18.7856 26.9497 14.9081C23.0723 11.0306 16.7856 11.0306 12.9081 14.9081C9.58039 18.2358 9.10858 23.338 11.4927 27.1689L13.6979 24.9637C12.4392 22.3799 12.8831 19.1758 15.0294 17.0294C17.7353 14.3235 22.1225 14.3235 24.8284 17.0294C27.5343 19.7354 27.5343 24.1225 24.8284 26.8284Z" fill="#3476F2"/>
<path d="M19.7033 24.4066C21.1963 24.4066 22.4066 23.1963 22.4066 21.7033C22.4066 20.2103 21.1963 19 19.7033 19C18.2103 19 17 20.2103 17 21.7033C17 23.1963 18.2103 24.4066 19.7033 24.4066Z" fill="#3476F2"/>
</g>
<defs>
<clipPath id="clip0_44_13767">
<rect width="41" height="40.0989" fill="white"/>
</clipPath>
</defs>
</svg>
