<svg width="147" height="41" viewBox="0 0 147 41" fill="none" xmlns="http://www.w3.org/2000/svg">
<g clip-path="url(#clip0_44_13779)">
<path d="M2.90167 1.5H6.56405C8.49439 1.5 10.0592 3.06485 10.0592 4.99518V4.99518V4.99518C10.0592 7.96223 9.40417 10.8927 8.14081 13.5773L6.45484 17.16L3.76538 23.8908C2.59242 26.8263 1.2132 29.9769 2.00056 33.0385V33.0385V33.0385C2.70312 35.7703 5.54316 37.6508 8.3443 37.9825C8.39573 37.9886 8.44779 37.9944 8.50049 38C10.4697 38.2088 11.7984 38.1631 13.0671 38.0178C14.6126 37.8408 16.5825 36.8468 17.9733 36.15V36.15C19.9221 35.1738 21.6334 35.4113 23.6798 36.1616C24.8387 36.5864 26.1954 37.0854 27.5392 37.5832C29.1679 38.1866 31.2573 38.5382 32.917 38.0265V38.0265C33.1881 37.9429 33.1319 37.9481 33.3919 37.8346C34.1356 37.5099 35.7455 36.755 36.5005 36C37.0565 35.444 37.6126 34.5787 37.9967 33.9201C38.349 33.3161 38.4704 33.2247 38.6322 32.5445V32.5445C38.9212 31.3296 38.5047 29.5186 38.0672 28.3489C36.8985 25.2249 36.1339 23.3566 34.6653 19.9725C33.8257 18.0377 32.7214 15.6134 31.7855 13.5849C30.5427 10.8908 29.8834 7.96212 29.8834 4.99518V4.99518V4.99518C29.8834 3.06485 31.4483 1.5 33.3786 1.5H36.4676" stroke="#3476F2" stroke-width="3.6044"/>
<path fill-rule="evenodd" clip-rule="evenodd" d="M24.8284 26.8284L19.9289 31.7279L15.8765 27.6755L13.7552 29.7969L17.8076 33.8492L19.9289 35.9706L22.0502 33.8492L26.9497 28.9497C30.8272 25.0723 30.8272 18.7856 26.9497 14.9081C23.0723 11.0306 16.7856 11.0306 12.9081 14.9081C9.58039 18.2358 9.10858 23.338 11.4927 27.1689L13.6979 24.9637C12.4392 22.3799 12.8831 19.1758 15.0294 17.0294C17.7353 14.3235 22.1225 14.3235 24.8284 17.0294C27.5343 19.7354 27.5343 24.1225 24.8284 26.8284Z" fill="#3476F2"/>
<path d="M19.7033 24.4066C21.1963 24.4066 22.4066 23.1963 22.4066 21.7033C22.4066 20.2103 21.1963 19 19.7033 19C18.2103 19 17 20.2103 17 21.7033C17 23.1963 18.2103 24.4066 19.7033 24.4066Z" fill="#3476F2"/>
</g>
<path d="M53.856 28.12C52.736 28.12 51.688 27.896 50.712 27.448C49.736 27 48.872 26.384 48.12 25.6C47.384 24.8 46.808 23.872 46.392 22.816C45.976 21.76 45.768 20.616 45.768 19.384C45.768 18.216 45.976 17.12 46.392 16.096C46.808 15.056 47.392 14.144 48.144 13.36C48.896 12.576 49.776 11.96 50.784 11.512C51.792 11.064 52.888 10.84 54.072 10.84C55.656 10.84 57.024 11.184 58.176 11.872C59.328 12.544 60.192 13.44 60.768 14.56L58.296 16.384C57.864 15.552 57.256 14.912 56.472 14.464C55.704 14 54.864 13.768 53.952 13.768C52.992 13.768 52.144 14.032 51.408 14.56C50.688 15.088 50.12 15.784 49.704 16.648C49.304 17.512 49.104 18.456 49.104 19.48C49.104 20.552 49.32 21.52 49.752 22.384C50.184 23.248 50.776 23.936 51.528 24.448C52.296 24.944 53.168 25.192 54.144 25.192C55.792 25.192 57.28 24.416 58.608 22.864V21.664H55.176V19.24H61.344V28H58.608V26.08C57.232 27.44 55.648 28.12 53.856 28.12ZM69.6866 28.24C68.3266 28.24 67.1506 27.944 66.1586 27.352C65.1826 26.76 64.4226 25.976 63.8786 25C63.3346 24.008 63.0626 22.936 63.0626 21.784C63.0626 20.6 63.3266 19.512 63.8546 18.52C64.3986 17.512 65.1666 16.712 66.1586 16.12C67.1506 15.512 68.3346 15.208 69.7106 15.208C71.0866 15.208 72.2626 15.512 73.2386 16.12C74.2146 16.712 74.9586 17.504 75.4706 18.496C75.9986 19.472 76.2626 20.528 76.2626 21.664C76.2626 22.08 76.2386 22.44 76.1906 22.744H66.4706C66.5506 23.72 66.9106 24.488 67.5506 25.048C68.2066 25.608 68.9586 25.888 69.8066 25.888C70.4466 25.888 71.0466 25.736 71.6066 25.432C72.1826 25.112 72.5746 24.696 72.7826 24.184L75.5426 24.952C75.0786 25.912 74.3346 26.704 73.3106 27.328C72.2866 27.936 71.0786 28.24 69.6866 28.24ZM66.3986 20.704H72.9746C72.8786 19.76 72.5186 19 71.8946 18.424C71.2866 17.832 70.5426 17.536 69.6626 17.536C68.7986 17.536 68.0546 17.832 67.4306 18.424C66.8226 19 66.4786 19.76 66.3986 20.704ZM84.0298 28.24C82.6538 28.24 81.4698 27.944 80.4778 27.352C79.5018 26.744 78.7498 25.944 78.2218 24.952C77.6938 23.96 77.4298 22.888 77.4298 21.736C77.4298 20.568 77.6938 19.488 78.2218 18.496C78.7658 17.504 79.5258 16.712 80.5018 16.12C81.4938 15.512 82.6698 15.208 84.0298 15.208C85.3898 15.208 86.5578 15.512 87.5338 16.12C88.5258 16.712 89.2858 17.504 89.8138 18.496C90.3418 19.488 90.6058 20.568 90.6058 21.736C90.6058 22.888 90.3418 23.96 89.8138 24.952C89.2858 25.944 88.5258 26.744 87.5338 27.352C86.5578 27.944 85.3898 28.24 84.0298 28.24ZM80.7418 21.736C80.7418 22.472 80.8858 23.128 81.1738 23.704C81.4618 24.264 81.8538 24.704 82.3498 25.024C82.8458 25.344 83.4058 25.504 84.0298 25.504C84.6378 25.504 85.1898 25.344 85.6858 25.024C86.1818 24.688 86.5738 24.24 86.8618 23.68C87.1658 23.104 87.3178 22.448 87.3178 21.712C87.3178 20.992 87.1658 20.352 86.8618 19.792C86.5738 19.216 86.1818 18.768 85.6858 18.448C85.1898 18.112 84.6378 17.944 84.0298 17.944C83.4058 17.944 82.8458 18.112 82.3498 18.448C81.8538 18.768 81.4618 19.216 81.1738 19.792C80.8858 20.352 80.7418 21 80.7418 21.736ZM92.7525 10.48H95.9685V23.968C95.9685 24.56 96.0645 24.952 96.2565 25.144C96.4485 25.336 96.7125 25.432 97.0485 25.432C97.3045 25.432 97.5685 25.4 97.8405 25.336C98.1125 25.272 98.3525 25.192 98.5605 25.096L98.9925 27.544C98.5605 27.752 98.0565 27.912 97.4805 28.024C96.9045 28.136 96.3845 28.192 95.9205 28.192C94.9125 28.192 94.1285 27.928 93.5685 27.4C93.0245 26.856 92.7525 26.088 92.7525 25.096V10.48ZM99.5297 24.28C99.5297 23.464 99.7537 22.752 100.202 22.144C100.666 21.52 101.306 21.04 102.122 20.704C102.938 20.368 103.874 20.2 104.93 20.2C105.458 20.2 105.994 20.248 106.538 20.344C107.082 20.424 107.554 20.544 107.954 20.704V20.032C107.954 19.232 107.714 18.616 107.234 18.184C106.77 17.752 106.074 17.536 105.146 17.536C104.458 17.536 103.802 17.656 103.178 17.896C102.554 18.136 101.898 18.488 101.21 18.952L100.178 16.84C101.01 16.296 101.858 15.888 102.722 15.616C103.602 15.344 104.522 15.208 105.482 15.208C107.274 15.208 108.666 15.656 109.658 16.552C110.666 17.448 111.17 18.728 111.17 20.392V24.4C111.17 24.752 111.226 25 111.338 25.144C111.45 25.272 111.65 25.352 111.938 25.384V28C111.65 28.064 111.386 28.104 111.146 28.12C110.922 28.152 110.73 28.168 110.57 28.168C109.93 28.168 109.442 28.024 109.106 27.736C108.77 27.448 108.57 27.096 108.506 26.68L108.434 26.032C107.874 26.752 107.186 27.304 106.37 27.688C105.57 28.056 104.746 28.24 103.898 28.24C103.05 28.24 102.298 28.072 101.642 27.736C100.986 27.384 100.466 26.912 100.082 26.32C99.7137 25.712 99.5297 25.032 99.5297 24.28ZM107.354 24.928C107.754 24.544 107.954 24.176 107.954 23.824V22.552C107.122 22.216 106.282 22.048 105.434 22.048C104.586 22.048 103.898 22.232 103.37 22.6C102.842 22.952 102.578 23.424 102.578 24.016C102.578 24.496 102.77 24.928 103.154 25.312C103.538 25.696 104.09 25.888 104.81 25.888C105.29 25.888 105.754 25.8 106.202 25.624C106.666 25.448 107.05 25.216 107.354 24.928ZM121.327 28.24C120.367 28.24 119.511 28.024 118.759 27.592C118.007 27.16 117.415 26.568 116.983 25.816V28H114.175V10.48H117.391V17.632C117.839 16.88 118.423 16.288 119.143 15.856C119.879 15.424 120.735 15.208 121.711 15.208C122.799 15.208 123.751 15.512 124.567 16.12C125.399 16.712 126.047 17.504 126.511 18.496C126.975 19.488 127.207 20.576 127.207 21.76C127.207 22.976 126.951 24.072 126.439 25.048C125.927 26.024 125.223 26.8 124.327 27.376C123.447 27.952 122.447 28.24 121.327 28.24ZM120.439 25.504C121.127 25.504 121.727 25.336 122.239 25C122.767 24.664 123.175 24.216 123.463 23.656C123.767 23.08 123.919 22.456 123.919 21.784C123.919 21.096 123.775 20.464 123.487 19.888C123.215 19.296 122.831 18.824 122.335 18.472C121.839 18.12 121.271 17.944 120.631 17.944C119.927 17.944 119.279 18.184 118.687 18.664C118.111 19.128 117.679 19.704 117.391 20.392V23.392C117.599 24.016 118.007 24.528 118.615 24.928C119.223 25.312 119.831 25.504 120.439 25.504ZM134.018 28.24C132.946 28.24 131.922 28.064 130.946 27.712C129.97 27.36 129.13 26.84 128.426 26.152L129.578 24.064C130.33 24.672 131.066 25.12 131.786 25.408C132.506 25.696 133.21 25.84 133.898 25.84C134.522 25.84 135.018 25.728 135.386 25.504C135.77 25.28 135.962 24.944 135.962 24.496C135.962 24.032 135.73 23.72 135.266 23.56C134.802 23.384 134.154 23.168 133.322 22.912C132.394 22.624 131.618 22.328 130.994 22.024C130.37 21.72 129.898 21.352 129.578 20.92C129.274 20.488 129.122 19.928 129.122 19.24C129.122 18.008 129.586 17.024 130.514 16.288C131.442 15.552 132.674 15.184 134.21 15.184C135.106 15.184 135.954 15.328 136.754 15.616C137.554 15.888 138.282 16.336 138.938 16.96L137.642 19C136.41 18.04 135.218 17.56 134.066 17.56C133.554 17.56 133.098 17.656 132.698 17.848C132.314 18.04 132.122 18.376 132.122 18.856C132.122 19.304 132.306 19.624 132.674 19.816C133.058 20.008 133.634 20.216 134.402 20.44C135.394 20.744 136.234 21.04 136.922 21.328C137.626 21.616 138.154 21.984 138.506 22.432C138.874 22.88 139.058 23.488 139.058 24.256C139.058 25.504 138.602 26.48 137.69 27.184C136.778 27.888 135.554 28.24 134.018 28.24Z" fill="#333333"/>
<circle cx="145" cy="26" r="2" fill="#3476F2"/>
<defs>
<clipPath id="clip0_44_13779">
<rect width="41" height="40.0989" fill="white"/>
</clipPath>
</defs>
</svg>
