<svg width="16" height="17" viewBox="0 0 16 17" fill="none" xmlns="http://www.w3.org/2000/svg">
<path d="M8 6.9165C9.10457 6.9165 10 6.02107 10 4.9165C10 3.81193 9.10457 2.9165 8 2.9165C6.89543 2.9165 6 3.81193 6 4.9165C6 6.02107 6.89543 6.9165 8 6.9165Z" stroke="black" stroke-linecap="round" stroke-linejoin="round"/>
<path d="M11.334 12.9165C12.4386 12.9165 13.334 12.0211 13.334 10.9165C13.334 9.81193 12.4386 8.9165 11.334 8.9165C10.2294 8.9165 9.33398 9.81193 9.33398 10.9165C9.33398 12.0211 10.2294 12.9165 11.334 12.9165Z" stroke="black" stroke-linecap="round" stroke-linejoin="round"/>
<path d="M4.66602 12.9165C5.77059 12.9165 6.66602 12.0211 6.66602 10.9165C6.66602 9.81193 5.77059 8.9165 4.66602 8.9165C3.56145 8.9165 2.66602 9.81193 2.66602 10.9165C2.66602 12.0211 3.56145 12.9165 4.66602 12.9165Z" stroke="black" stroke-linecap="round" stroke-linejoin="round"/>
</svg>
