<svg width="146" height="160" viewBox="0 0 146 160" fill="none" xmlns="http://www.w3.org/2000/svg">
<g clip-path="url(#clip0_152_5523)">
<path d="M101.193 32.4607C91.0913 30.8485 79.5874 29.9883 67.6068 29.9883C56.6425 29.9883 46.079 30.7077 36.625 32.0641C36.6272 31.9189 36.6293 31.7738 36.6358 31.6286C36.8864 23.2016 40.4234 15.2068 46.4907 9.3532C52.558 3.49954 60.6743 0.251345 69.1049 0.302849C77.5355 0.354354 85.6115 3.70148 91.6069 9.62882C97.6022 15.5562 101.041 23.5935 101.189 32.023C101.191 32.1703 101.193 32.3155 101.193 32.4607Z" fill="#6C63FF"/>
<g opacity="0.1">
<path opacity="0.1" d="M73.1432 0.290647C68.6593 -0.315004 64.0982 0.0282615 59.7554 1.2982C55.4126 2.56813 51.3852 4.73639 47.934 7.66246C44.4829 10.5885 41.6851 14.2071 39.7219 18.2836C37.7587 22.3602 36.6741 26.8038 36.5381 31.3264C36.5316 31.4715 36.5295 31.6167 36.5273 31.7619C39.336 31.3589 42.2446 31.0136 45.2306 30.7252C45.5958 23.1908 48.5872 16.022 53.6858 10.4627C58.7844 4.90343 65.6684 1.30459 73.1432 0.290647Z" fill="white"/>
</g>
<path d="M115.316 35.0217C110.666 33.7611 105.949 32.7599 101.188 32.0227C93.3844 30.8135 85.5171 30.0574 77.6258 29.7584C74.3386 29.624 70.9908 29.5547 67.6062 29.5547C64.9236 29.5547 62.2626 29.598 59.6386 29.6847C51.941 29.9121 44.2617 30.561 36.6351 31.6284C30.9896 32.4058 25.3987 33.5391 19.8961 35.0217C7.06611 38.5688 0 43.3229 0 48.4064C0 53.4899 7.06612 58.244 19.8961 61.7911C28.919 64.2874 40.0436 65.9884 52.1652 66.7684C57.1684 67.0935 62.3407 67.2581 67.6062 67.2581C72.889 67.2581 78.0786 67.0913 83.0971 66.7663C94.1286 66.0534 104.335 64.5777 112.876 62.4325C112.922 62.4195 112.965 62.4087 113.011 62.3979C113.587 62.2548 114.155 62.1053 114.716 61.9558C114.917 61.8995 115.117 61.8453 115.316 61.7911C115.327 61.7865 115.339 61.7829 115.351 61.7803C115.542 61.7283 115.73 61.6741 115.919 61.6221C116.296 61.5138 116.668 61.4076 117.035 61.2971C117.052 61.2928 117.067 61.2884 117.082 61.2841C117.401 61.1887 117.713 61.0934 118.023 60.9981C118.276 60.9179 118.527 60.8399 118.777 60.7597C118.959 60.7012 119.139 60.6427 119.316 60.5842C119.446 60.5409 119.574 60.4997 119.7 60.4563C119.871 60.4 120.042 60.3415 120.211 60.283C120.283 60.2592 120.354 60.2353 120.424 60.2093C120.586 60.1551 120.744 60.0988 120.902 60.0425C121.074 59.9818 121.245 59.919 121.414 59.8583C121.555 59.8085 121.695 59.7564 121.834 59.7044C121.951 59.6589 122.066 59.6156 122.183 59.5723C122.501 59.4531 122.814 59.3296 123.121 59.2082C123.275 59.1454 123.429 59.0847 123.581 59.0219C123.73 58.9612 123.882 58.8984 124.029 58.8355C124.272 58.7337 124.51 58.6318 124.744 58.53C124.857 58.478 124.972 58.4282 125.082 58.3805C125.167 58.3415 125.249 58.3047 125.334 58.2657C125.394 58.2397 125.455 58.2115 125.514 58.1833C125.732 58.0836 125.949 57.9818 126.161 57.88C126.976 57.4899 127.737 57.0912 128.443 56.6838C132.874 54.1464 135.212 51.3317 135.212 48.4064C135.212 43.3229 128.146 38.5688 115.316 35.0217ZM115.199 61.3751C106.166 63.8735 95.0106 65.5745 82.8566 66.3481C77.9139 66.6622 72.8046 66.8248 67.6062 66.8248C62.4252 66.8248 57.333 66.6644 52.4056 66.3502C40.2322 65.5788 29.0598 63.8778 20.0131 61.3751C7.38681 57.8821 0.433373 53.2775 0.433373 48.4064C0.434079 47.976 0.487952 47.5473 0.593772 47.1301C1.69879 42.7357 8.49627 38.623 20.0131 35.4377C25.4742 33.9667 31.0222 32.8399 36.6244 32.0639C44.2968 30.9905 52.0225 30.3394 59.7664 30.1137C62.3494 30.0292 64.9627 29.9873 67.6062 29.9881C70.9454 29.9881 74.2476 30.0552 77.4936 30.1852C85.4308 30.4816 93.3439 31.2413 101.193 32.4605C105.913 33.1943 110.589 34.1883 115.199 35.4377C126.714 38.623 133.509 42.7336 134.616 47.1258C134.724 47.5442 134.779 47.9744 134.779 48.4064C134.779 53.2775 127.826 57.8821 115.199 61.3751Z" fill="#3F3D56"/>
<path d="M135.088 48.6037C135.088 51.4986 132.702 54.2375 128.442 56.6839C127.733 57.0913 126.971 57.49 126.16 57.88C125.948 57.9819 125.731 58.0837 125.512 58.1834C125.454 58.2116 125.393 58.2397 125.332 58.2657C125.248 58.3047 125.165 58.3416 125.081 58.3806C124.97 58.4283 124.856 58.4781 124.743 58.5301C124.509 58.6319 124.271 58.7338 124.028 58.8356C123.881 58.8985 123.729 58.9613 123.579 59.022C123.428 59.0848 123.274 59.1455 123.12 59.2083C122.812 59.3297 122.5 59.4532 122.182 59.5724C122.065 59.6157 121.95 59.659 121.833 59.7045C121.694 59.7565 121.553 59.8085 121.412 59.8584C121.243 59.9191 121.072 59.9819 120.901 60.0426C120.743 60.0989 120.585 60.1552 120.422 60.2094C120.353 60.2354 120.281 60.2592 120.21 60.2831C120.041 60.3416 119.87 60.4001 119.698 60.4564C119.573 60.4998 119.445 60.5409 119.315 60.5843C119.137 60.6428 118.957 60.7013 118.775 60.7598C118.526 60.84 118.275 60.918 118.021 60.9982C117.711 61.0935 117.399 61.1888 117.081 61.2842C117.066 61.2885 117.051 61.2928 117.033 61.2972C116.667 61.4077 116.294 61.5139 115.917 61.6222C115.729 61.6742 115.54 61.7284 115.35 61.7804C115.338 61.783 115.326 61.7866 115.315 61.7912C115.115 61.8454 114.916 61.8996 114.715 61.9559C114.156 62.1033 113.586 62.2528 113.009 62.3979C112.964 62.4088 112.92 62.4196 112.875 62.4326C104.565 64.5085 94.37 66.0209 83.0872 66.7512C78.1445 67.0697 72.9917 67.2387 67.6981 67.2387C62.3568 67.2387 57.1605 67.0675 52.179 66.7425C22.4409 64.8032 0.308594 57.4185 0.308594 48.6037C0.310935 48.0673 0.392691 47.5343 0.551202 47.0219C0.564216 47.0587 0.577228 47.0934 0.592466 47.1302C3.68448 55.2516 25.6284 61.8151 54.101 63.4164C58.4629 63.6634 62.9808 63.7912 67.6049 63.7912C72.2485 63.7912 76.7837 63.6612 81.1629 63.4142C109.612 61.8064 131.534 55.2408 134.615 47.1259C134.667 46.9959 134.713 46.8658 134.752 46.7358C134.971 47.3342 135.085 47.9663 135.088 48.6037Z" fill="#3F3D56"/>
<path d="M19.8648 46.2714C16.2585 46.2714 12.4258 45.4956 12.4258 44.0576C12.4258 42.6196 16.2585 41.8438 19.8648 41.8438C23.471 41.8438 27.3038 42.6196 27.3038 44.0576C27.3038 45.4956 23.471 46.2714 19.8648 46.2714ZM19.8648 42.2771C15.7363 42.2771 12.8592 43.2155 12.8592 44.0576C12.8592 44.8997 15.7363 45.8381 19.8648 45.8381C23.9933 45.8381 26.8704 44.8997 26.8704 44.0576C26.8704 43.2155 23.9933 42.2771 19.8648 42.2771Z" fill="#3F3D56"/>
<path d="M35.2476 56.4555C31.6413 56.4555 27.8086 55.6796 27.8086 54.2417C27.8086 52.8037 31.6413 52.0278 35.2476 52.0278C38.8538 52.0278 42.6866 52.8037 42.6866 54.2417C42.6866 55.6796 38.8538 56.4555 35.2476 56.4555ZM35.2476 52.4612C31.1191 52.4612 28.242 53.3996 28.242 54.2417C28.242 55.0838 31.1191 56.0221 35.2476 56.0221C39.3761 56.0221 42.2532 55.0838 42.2532 54.2417C42.2532 53.3996 39.3761 52.4612 35.2476 52.4612Z" fill="#3F3D56"/>
<path d="M115.205 46.2714C111.598 46.2714 107.766 45.4956 107.766 44.0576C107.766 42.6196 111.598 41.8438 115.205 41.8438C118.811 41.8438 122.644 42.6196 122.644 44.0576C122.644 45.4956 118.811 46.2714 115.205 46.2714ZM115.205 42.2771C111.076 42.2771 108.199 43.2155 108.199 44.0576C108.199 44.8997 111.076 45.8381 115.205 45.8381C119.333 45.8381 122.21 44.8997 122.21 44.0576C122.21 43.2155 119.333 42.2771 115.205 42.2771Z" fill="#3F3D56"/>
<path d="M99.8218 56.4555C96.2156 56.4555 92.3828 55.6796 92.3828 54.2417C92.3828 52.8037 96.2156 52.0278 99.8218 52.0278C103.428 52.0278 107.261 52.8037 107.261 54.2417C107.261 55.6796 103.428 56.4555 99.8218 56.4555ZM99.8218 52.4612C95.6932 52.4612 92.8162 53.3996 92.8162 54.2417C92.8162 55.0838 95.6933 56.0221 99.8218 56.0221C103.95 56.0221 106.827 55.0838 106.827 54.2417C106.827 53.3996 103.95 52.4612 99.8218 52.4612Z" fill="#3F3D56"/>
<path d="M67.5327 61.2226C63.9265 61.2226 60.0938 60.4467 60.0938 59.0088C60.0938 57.5708 63.9265 56.7949 67.5327 56.7949C71.139 56.7949 74.9717 57.5708 74.9717 59.0088C74.9717 60.4467 71.139 61.2226 67.5327 61.2226ZM67.5327 57.2283C63.4042 57.2283 60.5271 58.1667 60.5271 59.0088C60.5271 59.8509 63.4042 60.7892 67.5327 60.7892C71.6612 60.7892 74.5384 59.8509 74.5384 59.0088C74.5384 58.1667 71.6612 57.2283 67.5327 57.2283Z" fill="#3F3D56"/>
<path d="M73.0176 106.765C78.0453 106.765 82.1211 102.689 82.1211 97.6616C82.1211 92.6339 78.0453 88.5581 73.0176 88.5581C67.9898 88.5581 63.9141 92.6339 63.9141 97.6616C63.9141 102.689 67.9898 106.765 73.0176 106.765Z" fill="#2F2E41"/>
<path d="M69.5556 103.643L65.125 105.861L66.3634 108.334L70.7939 106.115L69.5556 103.643Z" fill="#2F2E41"/>
<path d="M66.9489 108.083C67.2117 107.685 66.5632 106.794 65.5006 106.093C64.4379 105.393 63.3635 105.148 63.1007 105.546C62.838 105.945 63.4864 106.836 64.5491 107.536C65.6117 108.237 66.6862 108.482 66.9489 108.083Z" fill="#2F2E41"/>
<path d="M76.4806 103.642L75.2422 106.115L79.6728 108.334L80.9112 105.861L76.4806 103.642Z" fill="#2F2E41"/>
<path d="M81.4889 107.536C82.5515 106.836 83.2 105.945 82.9372 105.546C82.6745 105.148 81.6 105.393 80.5374 106.093C79.4747 106.794 78.8263 107.685 79.089 108.083C79.3518 108.482 80.4262 108.237 81.4889 107.536Z" fill="#2F2E41"/>
<path d="M72.3809 98.5459C74.0992 98.5459 75.4922 97.1529 75.4922 95.4346C75.4922 93.7162 74.0992 92.3232 72.3809 92.3232C70.6625 92.3232 69.2695 93.7162 69.2695 95.4346C69.2695 97.1529 70.6625 98.5459 72.3809 98.5459Z" fill="white"/>
<path d="M73.1387 94.8383C73.542 94.435 73.5397 93.7787 73.1335 93.3725C72.7273 92.9664 72.0711 92.964 71.6678 93.3674C71.2645 93.7707 71.2668 94.4269 71.6729 94.8331C72.0791 95.2393 72.7354 95.2416 73.1387 94.8383Z" fill="#3F3D56"/>
<path d="M80.1991 87.7577C80.336 84.3875 77.4314 81.5328 73.7114 81.3817C69.9914 81.2306 66.8647 83.8403 66.7278 87.2105C66.5909 90.5808 69.1768 91.3465 72.8968 91.4976C76.6168 91.6487 80.0622 91.128 80.1991 87.7577Z" fill="#6C63FF"/>
<path d="M85.4476 102.428C86.0464 101.914 85.2044 99.9512 83.5669 98.0438C81.9295 96.1364 80.1166 95.0068 79.5178 95.5209C78.919 96.0349 79.761 97.9979 81.3985 99.9053C83.0359 101.813 84.8488 102.942 85.4476 102.428Z" fill="#2F2E41"/>
<path d="M64.6646 99.9054C66.302 97.998 67.144 96.035 66.5452 95.521C65.9464 95.0069 64.1336 96.1365 62.4961 98.0439C60.8587 99.9513 60.0167 101.914 60.6155 102.428C61.2143 102.942 63.0271 101.813 64.6646 99.9054Z" fill="#2F2E41"/>
<path d="M75.5181 101.249C75.6166 101.79 75.4961 102.348 75.1831 102.801C74.87 103.253 74.3901 103.563 73.8489 103.661C73.3077 103.76 72.7495 103.639 72.2971 103.326C71.8448 103.013 71.5353 102.533 71.4368 101.992L71.436 101.988C71.232 100.861 72.1035 100.462 73.2307 100.258C74.358 100.054 75.314 100.122 75.5181 101.249Z" fill="white"/>
<path d="M57.6404 107.345C57.5255 107.345 57.4152 107.3 57.334 107.218C57.2527 107.137 57.207 107.027 57.207 106.912V81.343C57.207 81.2281 57.2527 81.1179 57.334 81.0366C57.4152 80.9553 57.5255 80.9097 57.6404 80.9097C57.7553 80.9097 57.8656 80.9553 57.9468 81.0366C58.0281 81.1179 58.0738 81.2281 58.0738 81.343V106.912C58.0738 107.027 58.0281 107.137 57.9468 107.218C57.8656 107.3 57.7553 107.345 57.6404 107.345Z" fill="#CCCCCC"/>
<path d="M51.1365 130.314C51.0216 130.314 50.9113 130.268 50.8301 130.187C50.7488 130.106 50.7031 129.995 50.7031 129.88V111.245C50.7031 111.13 50.7488 111.02 50.8301 110.939C50.9113 110.858 51.0216 110.812 51.1365 110.812C51.2514 110.812 51.3617 110.858 51.4429 110.939C51.5242 111.02 51.5699 111.13 51.5699 111.245V129.88C51.5699 129.995 51.5242 130.106 51.4429 130.187C51.3617 130.268 51.2514 130.314 51.1365 130.314Z" fill="#CCCCCC"/>
<path d="M67.824 114.929C67.7091 114.929 67.5988 114.884 67.5176 114.802C67.4363 114.721 67.3906 114.611 67.3906 114.496V88.927C67.3906 88.8121 67.4363 88.7019 67.5175 88.6206C67.5988 88.5393 67.7091 88.4937 67.824 88.4937C67.9389 88.4937 68.0492 88.5393 68.1304 88.6206C68.2117 88.7019 68.2574 88.8121 68.2574 88.927V114.496C68.2574 114.611 68.2117 114.721 68.1304 114.802C68.0492 114.884 67.9389 114.929 67.824 114.929Z" fill="#CCCCCC"/>
<path d="M61.5388 133.348C61.4239 133.348 61.3137 133.302 61.2324 133.221C61.1511 133.14 61.1055 133.029 61.1055 132.914V122.513C61.1055 122.399 61.1511 122.288 61.2324 122.207C61.3137 122.126 61.4239 122.08 61.5388 122.08C61.6538 122.08 61.764 122.126 61.8453 122.207C61.9265 122.288 61.9722 122.399 61.9722 122.513V132.914C61.9722 133.029 61.9265 133.14 61.8453 133.221C61.764 133.302 61.6538 133.348 61.5388 133.348Z" fill="#CCCCCC"/>
<path d="M70.4217 80.0426C70.3067 80.0426 70.1965 79.9969 70.1152 79.9157C70.0339 79.8344 69.9883 79.7242 69.9883 79.6092V69.2083C69.9883 69.0933 70.0339 68.9831 70.1152 68.9018C70.1965 68.8206 70.3067 68.7749 70.4217 68.7749C70.5366 68.7749 70.6468 68.8206 70.7281 68.9018C70.8094 68.9831 70.855 69.0933 70.855 69.2083V79.6092C70.855 79.7242 70.8094 79.8344 70.7281 79.9157C70.6468 79.9969 70.5366 80.0426 70.4217 80.0426Z" fill="#CCCCCC"/>
<path d="M48.7537 84.5929C48.6387 84.5929 48.5285 84.5472 48.4473 84.4659C48.366 84.3847 48.3203 84.2744 48.3203 84.1595V73.7586C48.3203 73.6436 48.366 73.5334 48.4472 73.4521C48.5285 73.3709 48.6387 73.3252 48.7537 73.3252C48.8686 73.3252 48.9789 73.3709 49.0601 73.4521C49.1414 73.5334 49.1871 73.6436 49.1871 73.7586V84.1595C49.1871 84.2744 49.1414 84.3847 49.0601 84.4659C48.9788 84.5472 48.8686 84.5929 48.7537 84.5929Z" fill="#CCCCCC"/>
<path d="M86.4568 85.6764C86.3419 85.6764 86.2316 85.6307 86.1504 85.5495C86.0691 85.4682 86.0234 85.358 86.0234 85.243V74.8421C86.0234 74.7271 86.0691 74.6169 86.1504 74.5356C86.2316 74.4543 86.3419 74.4087 86.4568 74.4087C86.5717 74.4087 86.682 74.4543 86.7632 74.5356C86.8445 74.6169 86.8902 74.7271 86.8902 74.8421V85.243C86.8902 85.358 86.8445 85.4682 86.7632 85.5495C86.682 85.6307 86.5717 85.6764 86.4568 85.6764Z" fill="#CCCCCC"/>
<path d="M85.5896 118.18C85.4747 118.18 85.3645 118.134 85.2832 118.053C85.2019 117.972 85.1563 117.861 85.1562 117.746V105.178C85.1562 105.064 85.2019 104.953 85.2832 104.872C85.3644 104.791 85.4747 104.745 85.5896 104.745C85.7046 104.745 85.8148 104.791 85.8961 104.872C85.9773 104.953 86.023 105.064 86.023 105.178V117.746C86.023 117.861 85.9773 117.972 85.8961 118.053C85.8148 118.134 85.7046 118.18 85.5896 118.18Z" fill="#CCCCCC"/>
<path d="M76.9256 129.23C76.8106 129.23 76.7004 129.185 76.6191 129.103C76.5379 129.022 76.4922 128.912 76.4922 128.797V110.162C76.4922 110.047 76.5378 109.937 76.6191 109.855C76.7004 109.774 76.8106 109.729 76.9256 109.729C77.0405 109.729 77.1507 109.774 77.232 109.855C77.3133 109.937 77.3589 110.047 77.3589 110.162V128.797C77.3589 128.912 77.3133 129.022 77.232 129.103C77.1507 129.185 77.0405 129.23 76.9256 129.23Z" fill="#CCCCCC"/>
<path d="M78.656 97.3776C78.5411 97.3776 78.4309 97.332 78.3496 97.2507C78.2683 97.1694 78.2227 97.0592 78.2227 96.9443V71.3753C78.2227 71.2603 78.2683 71.1501 78.3496 71.0688C78.4309 70.9876 78.5411 70.9419 78.656 70.9419C78.771 70.9419 78.8812 70.9876 78.9625 71.0688C79.0437 71.1501 79.0894 71.2603 79.0894 71.3753V96.9443C79.0894 97.0592 79.0437 97.1694 78.9625 97.2507C78.8812 97.332 78.771 97.3776 78.656 97.3776Z" fill="#CCCCCC"/>
<path d="M131.786 151.787C132.406 151.268 131.568 149.245 129.914 147.269C128.259 145.293 126.415 144.113 125.795 144.632C125.175 145.151 126.013 147.174 127.667 149.15C129.322 151.126 131.166 152.306 131.786 151.787Z" fill="#2F2E41"/>
<path d="M127.72 149.54C129.35 144.651 126.707 139.366 121.818 137.736C116.928 136.106 111.643 138.748 110.014 143.638C108.384 148.527 111.026 153.812 115.916 155.442C120.805 157.072 126.09 154.43 127.72 149.54Z" fill="#2F2E41"/>
<path d="M122.816 153.913H119.98V158.993H122.816V153.913Z" fill="#2F2E41"/>
<path d="M117.148 153.913H114.312V158.993H117.148V153.913Z" fill="#2F2E41"/>
<path d="M120.452 159.937C121.757 159.937 122.815 159.541 122.815 159.051C122.815 158.562 121.757 158.166 120.452 158.166C119.148 158.166 118.09 158.562 118.09 159.051C118.09 159.541 119.148 159.937 120.452 159.937Z" fill="#2F2E41"/>
<path d="M114.784 159.819C116.089 159.819 117.147 159.423 117.147 158.933C117.147 158.444 116.089 158.047 114.784 158.047C113.48 158.047 112.422 158.444 112.422 158.933C112.422 159.423 113.48 159.819 114.784 159.819Z" fill="#2F2E41"/>
<path d="M115.937 134.858C116.77 131.502 120.448 129.528 124.152 130.447C127.856 131.367 130.184 134.833 129.35 138.189C128.517 141.545 125.752 141.556 122.048 140.636C118.344 139.716 115.103 138.214 115.937 134.858Z" fill="#CCCCCC"/>
<path d="M112.571 144.258C112.918 143.527 111.311 142.039 108.983 140.935C106.655 139.831 104.486 139.528 104.139 140.259C103.793 140.99 105.399 142.478 107.728 143.582C110.056 144.686 112.225 144.989 112.571 144.258Z" fill="#2F2E41"/>
<path d="M117.471 147.731C119.189 147.731 120.582 146.338 120.582 144.62C120.582 142.901 119.189 141.508 117.471 141.508C115.752 141.508 114.359 142.901 114.359 144.62C114.359 146.338 115.752 147.731 117.471 147.731Z" fill="white"/>
<path d="M116.193 144.541C116.766 144.541 117.23 144.077 117.23 143.504C117.23 142.932 116.766 142.467 116.193 142.467C115.621 142.467 115.156 142.932 115.156 143.504C115.156 144.077 115.621 144.541 116.193 144.541Z" fill="#3F3D56"/>
<path d="M117.445 152.416C118.163 152.416 118.745 151.834 118.745 151.116C118.745 150.398 118.163 149.816 117.445 149.816C116.727 149.816 116.145 150.398 116.145 151.116C116.145 151.834 116.727 152.416 117.445 152.416Z" fill="white"/>
<path d="M145.511 160H94.3729C94.3155 160 94.2604 159.977 94.2197 159.936C94.1791 159.896 94.1562 159.841 94.1562 159.783C94.1562 159.726 94.1791 159.671 94.2197 159.63C94.2604 159.589 94.3155 159.566 94.3729 159.566H145.511C145.568 159.566 145.624 159.589 145.664 159.63C145.705 159.671 145.728 159.726 145.728 159.783C145.728 159.841 145.705 159.896 145.664 159.936C145.624 159.977 145.568 160 145.511 160Z" fill="#3F3D56"/>
</g>
<defs>
<clipPath id="clip0_152_5523">
<rect width="145.728" height="160" fill="white"/>
</clipPath>
</defs>
</svg>
