<svg width="236" height="160" viewBox="0 0 236 160" fill="none" xmlns="http://www.w3.org/2000/svg">
<g clip-path="url(#clip0_159_897)">
<path d="M142.907 89.7017C143.308 89.7017 143.693 89.861 143.976 90.1446C144.26 90.4282 144.419 90.8128 144.419 91.2139V105.843H173.427C173.828 105.843 174.213 106.003 174.496 106.286C174.78 106.57 174.939 106.955 174.939 107.356C174.939 107.757 174.78 108.141 174.496 108.425C174.213 108.709 173.828 108.868 173.427 108.868H144.419V159.46H141.395V91.2139C141.395 90.8128 141.554 90.4282 141.837 90.1446C142.121 89.861 142.506 89.7017 142.907 89.7017V89.7017Z" fill="#E6E6E6"/>
<path d="M62.1796 159.117L56.7265 159.267C55.8982 159.31 55.0787 159.08 54.3933 158.613C53.8011 158.173 53.5295 157.577 53.6486 156.979L54.7216 151.587C54.9238 150.569 56.1705 149.8 57.6857 149.758L60.6971 149.675C62.2122 149.633 63.4995 150.332 63.7575 151.337L65.1266 156.662C65.2785 157.253 65.0401 157.862 64.4731 158.335C63.8145 158.839 63.009 159.114 62.1796 159.117V159.117Z" fill="#3F3D56"/>
<path d="M95.3475 158.962L89.8945 159.113C89.0662 159.156 88.2467 158.926 87.5613 158.459C86.9691 158.018 86.6975 157.423 86.8165 156.825L87.8896 151.432C88.0918 150.415 89.3385 149.646 90.8536 149.604L93.8651 149.521C95.3802 149.479 96.6674 150.178 96.9255 151.183L98.2945 156.508C98.4465 157.099 98.2081 157.708 97.6411 158.181C96.9825 158.685 96.1769 158.959 95.3475 158.962V158.962Z" fill="#3F3D56"/>
<path d="M43.247 113.181C42.9979 113.073 42.7929 112.884 42.6659 112.644C42.5389 112.405 42.4976 112.129 42.5487 111.862C42.5999 111.596 42.7404 111.355 42.9471 111.179C43.1539 111.004 43.4144 110.904 43.6855 110.896L105.68 109.185C105.836 109.18 105.992 109.207 106.138 109.262C106.284 109.318 106.417 109.402 106.531 109.51C106.645 109.617 106.736 109.746 106.8 109.889C106.864 110.031 106.899 110.185 106.903 110.342V110.342C106.911 110.657 106.794 110.963 106.577 111.193C106.36 111.422 106.061 111.556 105.746 111.565L105.745 111.565L43.7513 113.277C43.5782 113.282 43.4061 113.249 43.247 113.181Z" fill="#3F3D56"/>
<path d="M66.1232 92.6576L48.4023 93.147L50.0545 152.977L67.7753 152.488L66.1232 92.6576Z" fill="#E6E6E6"/>
<path d="M66.5744 91.583L63.168 100.863L63.171 143.14L67.3218 144.33L66.5744 91.583Z" fill="#CCCCCC"/>
<path d="M57.1717 77.0216C53.8564 77.1157 51.327 82.8532 51.3878 85.0921L51.4997 89.1454L63.5041 88.8139L63.3922 84.7606C63.3294 82.5217 60.4872 76.9326 57.1717 77.0216Z" fill="#3F3D56"/>
<path d="M48.6346 117.924C48.0152 117.941 47.4146 117.711 46.9645 117.285C46.5144 116.859 46.2517 116.272 46.2338 115.652L46.0517 109.056C46.0346 108.436 46.2643 107.835 46.6903 107.385C47.1164 106.935 47.7038 106.672 48.3234 106.655C48.943 106.638 49.5441 106.868 49.9943 107.294C50.4445 107.72 50.7071 108.307 50.7242 108.927L50.9063 115.523C50.9227 116.143 50.6928 116.743 50.2669 117.194C49.841 117.644 49.254 117.906 48.6346 117.924Z" fill="#3F3D56"/>
<path d="M53.1307 93.2887L53.0469 88.9292L54.1902 88.9009L54.274 93.2463L55.3103 156.582L54.1668 156.613" fill="#3F3D56"/>
<path d="M68.1561 103.484L47.6062 104.051C45.6434 101.658 45.4651 91.46 49.5613 89.5192L51.1677 86.7916L63.5525 86.187L65 89.059C67.0376 90.7928 68.0883 100.927 68.1561 103.484Z" fill="#E6E6E6"/>
<path d="M60.4231 98.5929L55.2264 98.7364C54.2236 98.7641 53.371 97.4631 53.3261 95.8366C53.2812 94.2101 54.0607 92.864 55.0635 92.8363L60.2602 92.6928C61.263 92.6651 62.1156 93.9661 62.1605 95.5926C62.2054 97.2191 61.4259 98.5652 60.4231 98.5929Z" fill="#6C63FF"/>
<path d="M50.3608 128.012L39.6487 135.579L37.7773 152.64L50.2736 148.464L50.3608 128.012Z" fill="#E6E6E6"/>
<path d="M100.334 91.9252L82.6133 92.4146L84.2654 152.245L101.986 151.755L100.334 91.9252Z" fill="#E6E6E6"/>
<path d="M83.0352 91.7827L86.6814 100.971L87.7754 143.234L83.6568 144.532L83.0352 91.7827Z" fill="#CCCCCC"/>
<path d="M109.194 75.3141C110.477 75.3141 111.516 73.9197 111.516 72.1995C111.516 70.4794 110.477 69.085 109.194 69.085C107.911 69.085 106.871 70.4794 106.871 72.1995C106.871 73.9197 107.911 75.3141 109.194 75.3141Z" fill="#E6E6E6"/>
<path d="M91.035 76.2984C87.7197 76.3926 85.1902 82.13 85.2511 84.3689L85.363 88.4223L97.3674 88.0908L97.2555 84.0375C97.1927 81.7986 94.3504 76.2095 91.035 76.2984Z" fill="#3F3D56"/>
<path d="M94.4667 94.6537L94.3828 90.2942L95.5261 90.2656L95.61 94.6113L96.6463 157.947L95.5027 157.978" fill="#3F3D56"/>
<path d="M102.017 102.76L81.4674 103.328C81.109 101.162 81.5726 91.0557 83.4226 88.7961L85.0289 86.0684L97.4138 85.4639L98.8612 88.3358C102.518 88.6338 103.797 98.5651 102.017 102.76Z" fill="#E6E6E6"/>
<path d="M94.3074 98.78L89.1107 98.9235C88.1078 98.9512 87.2496 97.4459 87.1978 95.5685C87.1459 93.6911 87.9198 92.1408 88.9226 92.1131L94.1193 91.9696C95.1221 91.9419 95.9803 93.4472 96.0322 95.3246C96.084 97.202 95.3102 98.7523 94.3074 98.78Z" fill="#6C63FF"/>
<path d="M101.209 123.638L111.565 131.686L112.656 148.815L100.363 144.073L101.209 123.638Z" fill="#E6E6E6"/>
<path d="M98.317 44.3014C87.2052 44.3014 74.4349 31.9706 63.1364 37.8293C28.9275 55.5679 33.6365 25.8852 23.8086 14.8459L24.1312 14.1987C31.5715 42.5794 38.3034 87.8029 63.2849 37.0766C69.5428 24.3697 90.081 44.011 102.17 43.4316L102.191 44.2094C100.915 44.271 99.6232 44.3017 98.317 44.3014Z" fill="#F2F2F2"/>
<path d="M124.985 46.0464C116.127 52.7553 98.5021 50.6358 93.0326 62.1278C76.4725 96.9225 62.305 70.4173 47.8054 67.551L47.6719 66.8403C62.1869 68.0442 77.7563 66.1762 92.6965 61.4381C106.198 57.1566 118.244 50.7874 127.532 43.0264L128.018 43.6338C127.037 44.4537 126.026 45.2579 124.985 46.0464Z" fill="#F2F2F2"/>
<path d="M28.6313 44.5187C29.914 44.5187 30.9539 43.1243 30.9539 41.4041C30.9539 39.684 29.914 38.2896 28.6313 38.2896C27.3485 38.2896 26.3086 39.684 26.3086 41.4041C26.3086 43.1243 27.3485 44.5187 28.6313 44.5187Z" fill="#E6E6E6"/>
<path d="M100.67 19.2228C101.953 19.2228 102.993 17.8284 102.993 16.1082C102.993 14.3881 101.953 12.9937 100.67 12.9937C99.3876 12.9937 98.3477 14.3881 98.3477 16.1082C98.3477 17.8284 99.3876 19.2228 100.67 19.2228Z" fill="#E6E6E6"/>
<path d="M49.8971 57.0894C48.8352 57.7969 47.7484 56.1129 48.8307 55.4368C49.8925 54.7293 50.9794 56.4133 49.8971 57.0894Z" fill="#E6E6E6"/>
<path d="M89.2174 1.82275C88.1555 2.53027 87.0687 0.846306 88.151 0.1702C89.2129 -0.53728 90.2997 1.14668 89.2174 1.82275Z" fill="#E6E6E6"/>
<path d="M112.389 34.5902L111.713 34.442L111.861 33.7662L111.411 33.6675L111.263 34.3433L110.587 34.1954L110.488 34.6458L111.164 34.794L111.016 35.4696L111.466 35.5683L111.615 34.8924L112.29 35.0406L112.389 34.5902Z" fill="#E6E6E6"/>
<path d="M50.4661 11.944C52.0913 11.944 53.4088 10.6265 53.4088 9.00129C53.4088 7.37608 52.0913 6.05859 50.4661 6.05859C48.8409 6.05859 47.5234 7.37608 47.5234 9.00129C47.5234 10.6265 48.8409 11.944 50.4661 11.944Z" fill="#FF6584"/>
<path d="M71.9881 5.27644C68.6728 5.3706 66.1434 11.1081 66.2042 13.347L66.3161 17.4003L78.3205 17.0688L78.2086 13.0155C78.1458 10.7766 75.3036 5.1875 71.9881 5.27644Z" fill="#3F3D56"/>
<path d="M79.1366 158.763L73.6836 158.914C72.8553 158.956 72.0358 158.727 71.3503 158.26C70.7582 157.819 70.4865 157.224 70.6056 156.626L71.6787 151.233C71.8809 150.216 73.1276 149.447 74.6427 149.405L77.6542 149.322C79.1693 149.28 80.4565 149.979 80.7146 150.984L82.0836 156.309C82.2355 156.899 81.9971 157.509 81.4302 157.981C80.7715 158.485 79.966 158.76 79.1366 158.763V158.763Z" fill="#3F3D56"/>
<path d="M81.5685 31.08L63.8477 31.5693L67.1873 152.509L84.9081 152.02L81.5685 31.08Z" fill="#E6E6E6"/>
<path d="M74.4784 89.6222L74.3945 85.2627L75.5378 85.2344L75.6217 89.5798L76.658 152.915L75.5144 152.947" fill="#3F3D56"/>
<path d="M85.0557 42.1488L61.0448 42.8118C60.6262 40.2813 61.1677 28.4727 63.3293 25.8325L63.9216 22.681L80.5006 22.2231L81.368 25.2947C83.7488 27.3206 84.9764 39.1612 85.0557 42.1488Z" fill="#E6E6E6"/>
<path d="M81.0273 22.5951L63.9187 23.0676C63.2873 23.085 62.7658 22.7535 62.7541 22.327C62.7525 22.2656 62.7615 22.2043 62.7807 22.146L65.4381 13.959C65.5519 13.6085 66.0049 13.351 66.5336 13.3364L77.8796 13.0231C78.4083 13.0085 78.8748 13.2406 79.0077 13.5843L82.1129 21.6121C82.2718 22.0227 81.905 22.45 81.2937 22.5665C81.2058 22.5831 81.1167 22.5927 81.0273 22.5951V22.5951Z" fill="#E6E6E6"/>
<path d="M65.6055 89.0662C65.4511 89.0001 65.3051 88.9156 65.1709 88.8147C64.9784 88.6796 64.8194 88.5024 64.706 88.2964C64.5926 88.0904 64.5279 87.8613 64.5167 87.6264L63.8951 65.1135C63.8695 64.1816 64.7819 63.3976 65.9291 63.3659L81.2452 62.9429C82.3926 62.911 83.3467 63.6437 83.3726 64.5757L83.9942 87.0887C83.996 87.3238 83.944 87.5561 83.8422 87.768C83.7403 87.9799 83.5913 88.1657 83.4066 88.3111C82.9975 88.6443 82.4876 88.8294 81.96 88.8362L66.6441 89.259C66.288 89.271 65.9336 89.2052 65.6055 89.0662V89.0662Z" fill="#3F3D56"/>
<path d="M75.4084 21.1461L70.2117 21.2896C69.2089 21.3173 68.3609 20.1843 68.3217 18.7644C68.2825 17.3444 69.0667 16.1663 70.0695 16.1386L75.2662 15.9951C76.269 15.9674 77.117 17.1004 77.1562 18.5204C77.1954 19.9404 76.4113 21.1184 75.4084 21.1461Z" fill="#6C63FF"/>
<path d="M198.247 154.672H192.198V110.712C197.258 110.349 201.061 108.8 201.061 106.943C201.061 104.817 196.075 103.094 189.925 103.094C183.775 103.094 178.789 104.817 178.789 106.943C178.789 108.818 182.666 110.379 187.799 110.722V154.672H181.75C181.166 154.672 180.607 154.903 180.194 155.316C179.782 155.728 179.55 156.288 179.55 156.871C179.55 157.455 179.782 158.014 180.194 158.427C180.607 158.839 181.166 159.071 181.75 159.071H198.247C198.831 159.071 199.39 158.839 199.803 158.427C200.215 158.014 200.447 157.455 200.447 156.871C200.447 156.288 200.215 155.728 199.803 155.316C199.39 154.903 198.831 154.672 198.247 154.672Z" fill="#E6E6E6"/>
<path d="M186.105 132.355L184.118 134.52L174.82 127.886L177.753 124.69L186.105 132.355Z" fill="#A0616A"/>
<path d="M181.023 138.07C181.043 138.554 181.158 139.029 181.363 139.469C181.568 139.908 181.857 140.302 182.216 140.629L182.303 140.71L184.909 137.87L188.709 133.728L185.904 131.153L185.397 131.706L185.344 131.763L182.82 132.957L182.285 133.212L182.193 133.254L181.992 135.417V135.419C181.663 135.774 181.408 136.192 181.241 136.647C181.075 137.102 181.001 137.586 181.023 138.07V138.07Z" fill="#2F2E41"/>
<path d="M196.398 153.956L193.586 154.81L188.953 144.371L193.103 143.11L196.398 153.956Z" fill="#A0616A"/>
<path d="M188.842 159.102L188.877 159.218L197.944 156.464L196.837 152.82L196.121 153.038L196.046 153.061L192.675 152.751L192.575 152.743L191.3 154.503C190.364 154.787 189.58 155.431 189.119 156.294C188.658 157.156 188.559 158.167 188.842 159.102H188.842Z" fill="#2F2E41"/>
<path d="M173.213 99.2949C173.213 99.2949 155.26 116.629 166.609 121.994H170.117C170.88 119.516 172.052 117.182 173.585 115.091C173.916 114.657 175.158 114.745 175.503 114.322C177.608 111.741 179.89 109.525 181.467 109.613L181.09 121.589L180.479 125.862C180.159 128.07 189.203 147.353 189.203 147.353L194.888 145.119C194.888 145.119 188.965 129.236 188.896 126.947L193.642 101.771L173.213 99.2949Z" fill="#2F2E41"/>
<path d="M171.714 100.15C171.806 100.281 171.925 100.389 172.064 100.468C172.293 100.597 172.541 100.689 172.799 100.74C176.841 101.658 190.046 103.56 193.473 102.652C193.894 102.543 194.169 102.388 194.259 102.185C194.545 101.542 194.509 98.8259 194.34 95.5466C194.309 94.9322 193.632 94.267 193.591 93.6241C193.563 93.142 194.171 92.6883 194.139 92.1981C193.915 88.8821 193.626 85.5031 193.433 83.3671C193.311 81.9939 193.227 81.1354 193.227 81.1354L195.312 67.9876L195.215 67.8269L195.105 67.772L188.381 64.4439L188.015 63.5081C187.909 63.2386 187.725 63.0072 187.486 62.8436C187.247 62.6801 186.964 62.5919 186.675 62.5906L182.246 62.5723C182.016 62.571 181.789 62.6246 181.585 62.7287C181.38 62.8327 181.203 62.9841 181.068 63.1704L179.868 64.8324L171.934 69.9182L171.965 70.0118L175.687 81.3409L175.706 82.2238V82.2258L175.844 89.3256L175.46 90.2878L175.893 91.8665C175.893 91.8665 175.693 93.7116 174.625 95.0827C173.657 96.3277 172.424 97.6256 171.867 98.6794V98.6814C171.558 99.2633 171.454 99.7678 171.714 100.15Z" fill="#6C63FF"/>
<path d="M165.746 120.965L166.706 122.177C166.706 122.177 175.531 128.352 175.834 128.929L177.229 130.249L180.604 126.641L178.849 124.441C177.444 122.681 175.63 121.292 173.564 120.395V120.395L170.874 118.009L165.746 120.965Z" fill="#2F2E41"/>
<path d="M197.535 104.245L195.928 88.6886L195.504 82.2861L200.002 81.4727C200.002 81.4727 199.824 86.0507 200.413 88.6336C200.995 91.1825 200.491 103.904 200.455 104.244C200.785 104.539 201.018 104.928 201.122 105.359C201.227 105.789 201.199 106.241 201.04 106.656C200.882 107.07 200.603 107.426 200.238 107.677C199.873 107.929 199.44 108.064 198.997 108.064C198.554 108.064 198.121 107.93 197.756 107.679C197.39 107.427 197.11 107.071 196.952 106.657C196.793 106.244 196.764 105.791 196.868 105.361C196.973 104.93 197.205 104.541 197.535 104.245V104.245Z" fill="#A0616A"/>
<path d="M192.18 80.6858L193.433 83.367L193.87 84.3008L195.048 90.4688L195.636 91.0934L196.143 93.1094L196.381 93.0606L200.673 92.1716L201.924 91.9132C202.206 91.4434 202.317 90.8906 202.239 90.3483C202.16 89.806 201.897 89.3075 201.493 88.937C201.407 88.8597 201.336 88.7844 201.338 88.7132C201.409 84.4229 201.147 76.5887 198.777 73.3643C198.024 72.341 197.573 71.3218 196.916 70.6098C196.914 70.6078 196.914 70.6058 196.912 70.6058L195.313 67.9876L195.215 67.8269L195.105 67.772L192.18 80.6858Z" fill="#6C63FF"/>
<path d="M184.807 61.4701C188.061 61.4701 190.699 58.8319 190.699 55.5776C190.699 52.3232 188.061 49.6851 184.807 49.6851C181.552 49.6851 178.914 52.3232 178.914 55.5776C178.914 58.8319 181.552 61.4701 184.807 61.4701Z" fill="#A0616A"/>
<path d="M191.804 54.3096C191.976 53.3194 192.111 52.0357 191.616 50.8945C191.199 49.9342 190.154 49.0337 188.992 49.1552C189.047 48.9384 189.041 48.7106 188.974 48.497C188.908 48.2835 188.783 48.0927 188.615 47.9457C188.236 47.6487 187.796 47.4414 187.325 47.3396C186.234 47.0187 185.103 46.686 183.935 46.6798C182.624 46.6726 181.463 47.1216 180.751 47.9133L180.733 47.9389L180.52 48.4486C180.491 48.5169 180.448 48.5783 180.394 48.6285C180.339 48.6787 180.275 48.7165 180.204 48.7393C180.133 48.7626 180.058 48.77 179.985 48.7609C179.911 48.7519 179.84 48.7266 179.777 48.687C179.708 48.6445 179.629 48.6208 179.548 48.6181C179.467 48.6155 179.386 48.6341 179.315 48.672C179.243 48.7099 179.183 48.7659 179.139 48.8344C179.096 48.9029 179.071 48.9815 179.067 49.0625L179.056 49.28L178.75 49.1581C178.673 49.1271 178.59 49.1172 178.508 49.1293C178.426 49.1414 178.349 49.1751 178.285 49.227C178.22 49.2788 178.171 49.347 178.142 49.4243C178.112 49.5016 178.104 49.5854 178.118 49.6669L178.159 49.9257C178.093 49.9137 178.026 49.9152 177.96 49.9299C177.895 49.9445 177.834 49.9722 177.779 50.0112C177.702 50.0683 177.644 50.1486 177.615 50.2405C177.586 50.3324 177.587 50.4312 177.617 50.5226C177.855 51.1995 178.26 51.8049 178.795 52.2822C179.036 52.4994 179.305 52.6823 179.595 52.8259C179.655 52.8564 179.718 52.8852 179.783 52.9124C182.131 53.9193 184.644 54.4884 187.197 54.5918C186.956 55.0523 186.8 55.5528 186.737 56.0689C186.702 56.3618 186.748 56.6586 186.87 56.9272C186.991 57.1958 187.184 57.4259 187.428 57.5926C187.533 57.6529 187.644 57.7037 187.759 57.7442C187.868 57.7847 187.975 57.8338 188.076 57.8912C188.225 57.9814 188.348 58.1093 188.432 58.2621C188.516 58.4149 188.558 58.5871 188.553 58.7613C188.549 58.9355 188.499 59.1055 188.408 59.2541C188.317 59.4028 188.189 59.5247 188.036 59.6077C188.036 59.6077 188.474 60.1431 188.544 60.134C188.824 60.0706 189.076 59.9213 189.266 59.707C190.542 58.4679 191.396 56.653 191.804 54.3096Z" fill="#2F2E41"/>
<path d="M217.602 145.396L217.858 139.637C220.528 138.21 223.506 137.456 226.533 137.441C222.367 140.848 222.887 147.414 220.063 151.995C219.171 153.417 217.97 154.62 216.55 155.514C215.13 156.409 213.527 156.973 211.859 157.164L208.373 159.299C207.894 156.632 208 153.893 208.682 151.27C209.364 148.648 210.606 146.205 212.324 144.109C213.299 142.942 214.417 141.903 215.651 141.017C216.487 143.218 217.602 145.396 217.602 145.396Z" fill="#F2F2F2"/>
<path d="M235.132 159.573C235.132 159.629 235.121 159.685 235.1 159.737C235.079 159.789 235.047 159.836 235.007 159.875C234.968 159.915 234.921 159.947 234.869 159.968C234.817 159.989 234.761 160 234.705 160H0.427071C0.313805 160 0.205177 159.955 0.125085 159.875C0.0449942 159.795 0 159.686 0 159.573C0 159.46 0.0449942 159.351 0.125085 159.271C0.205177 159.191 0.313805 159.146 0.427071 159.146H234.705C234.761 159.146 234.817 159.157 234.869 159.178C234.921 159.2 234.968 159.231 235.007 159.271C235.047 159.31 235.079 159.358 235.1 159.409C235.121 159.461 235.132 159.517 235.132 159.573V159.573Z" fill="#CCCCCC"/>
<path d="M100.771 116.463C100.152 116.479 99.5512 116.249 99.1011 115.823C98.6511 115.397 98.3883 114.81 98.3705 114.191L98.1883 107.594C98.172 106.975 98.4021 106.375 98.8281 105.925C99.254 105.476 99.8411 105.214 100.46 105.197C101.079 105.18 101.68 105.409 102.13 105.834C102.58 106.26 102.843 106.846 102.861 107.465L103.043 114.062C103.059 114.681 102.829 115.282 102.403 115.732C101.978 116.182 101.391 116.445 100.771 116.463V116.463Z" fill="#3F3D56"/>
<path d="M203.841 140.572C200.291 140.572 196.4 140.438 192.167 140.169C170.277 138.779 141.922 133.946 112.326 126.561C82.7302 119.176 55.429 110.12 35.4518 101.063C25.7203 96.6507 18.2515 92.4742 13.253 88.6492C7.96083 84.5999 5.64598 81.0703 6.37244 78.1588C7.78792 72.4867 20.3213 71.2458 30.5863 71.2036L30.5898 72.0285C16.4933 72.0864 8.17699 74.3345 7.17289 78.3586C5.89382 83.4838 16.3253 91.4853 35.7924 100.312C55.7257 109.349 82.9768 118.387 112.526 125.761C142.075 133.134 170.377 137.959 192.22 139.346C213.551 140.701 226.519 138.538 227.798 133.413C228.86 129.157 221.859 122.889 208.086 115.761L208.465 115.029C218.473 120.208 230.09 127.636 228.598 133.613C227.872 136.524 224.17 138.552 217.596 139.641C213.848 140.261 209.245 140.572 203.841 140.572Z" fill="#CCCCCC"/>
<path d="M15.4121 135.168C12.5948 135.168 10.7633 134.468 9.95263 133.076C8.35403 130.332 11.0314 125.517 17.9102 118.764L18.488 119.353C12.0983 125.626 9.32015 130.352 10.6653 132.661C11.5165 134.122 14.0496 134.645 17.9925 134.174C21.9066 133.707 27.0937 132.314 33.4099 130.035C46.4129 125.342 62.7266 117.426 79.3457 107.746C95.9643 98.0653 110.897 87.7793 121.394 78.783C123.41 77.0547 125.24 75.3921 126.833 73.8417C128.923 71.856 130.852 69.7066 132.6 67.4139C134.955 64.2169 135.749 61.755 134.898 60.294C133.477 57.8539 127.505 58.0833 118.083 60.941L117.843 60.1515C127.953 57.086 133.931 56.9941 135.611 59.8788C136.655 61.6712 135.865 64.3709 133.264 67.9031C131.489 70.2322 129.531 72.4156 127.408 74.4327C125.803 75.9953 123.96 77.6696 121.931 79.4093C111.397 88.4372 96.4212 98.7537 79.7609 108.458C63.1001 118.164 46.7384 126.102 33.6899 130.811C27.315 133.112 22.0665 134.519 18.0902 134.993C17.2017 135.104 16.3074 135.163 15.4121 135.168V135.168Z" fill="#CCCCCC"/>
<path d="M165.966 101.301C163.928 101.26 152.977 100.946 151.182 101.023C151.08 100.667 147.676 105.03 147.593 105.057C147.538 105.115 147.498 105.186 147.476 105.263C147.454 105.34 147.451 105.422 147.467 105.5C147.484 105.579 147.519 105.652 147.57 105.714C147.621 105.776 147.686 105.825 147.76 105.856C147.96 105.978 165.613 105.651 165.827 105.694C165.919 105.693 166.01 105.665 166.087 105.614C166.165 105.564 166.226 105.493 166.265 105.409L166.383 105.144C166.395 104.692 166.543 102.381 166.411 101.986C166.443 101.912 166.457 101.831 166.45 101.75C166.444 101.67 166.417 101.592 166.373 101.524C166.329 101.456 166.269 101.4 166.198 101.361C166.127 101.322 166.047 101.301 165.966 101.301V101.301Z" fill="#E6E6E6"/>
<path opacity="0.17" d="M166.382 105.144C166.278 105.393 166.146 105.706 165.826 105.694L147.945 105.895C147.86 105.894 147.777 105.871 147.704 105.829C147.631 105.787 147.57 105.727 147.526 105.654C147.483 105.581 147.459 105.499 147.457 105.414C147.455 105.329 147.475 105.246 147.514 105.171L166.382 105.144Z" fill="black"/>
<path d="M151.263 100.97C151.071 100.637 146.29 76.9827 145.891 76.7849L142.627 72.7923L142.336 72.5729C141.93 72.3501 140.957 72.5007 141.045 73.1203C141.811 76.7965 146.743 97.7342 146.851 100.998L147.445 105.157C147.456 105.228 147.481 105.296 147.519 105.356C147.558 105.416 147.608 105.468 147.668 105.508C147.727 105.547 147.795 105.574 147.865 105.586C147.936 105.598 148.008 105.595 148.077 105.578C148.247 105.559 148.41 105.497 148.549 105.397C148.687 105.296 148.798 105.162 148.868 105.006C148.913 104.859 151.487 101.055 151.263 100.97Z" fill="#E6E6E6"/>
<path opacity="0.17" d="M142.627 72.7925L148.869 105.007C148.661 105.535 147.684 105.905 147.456 105.212C147.452 105.211 141.052 73.1402 141.046 73.1211C140.977 72.3492 142.253 72.3247 142.627 72.7925Z" fill="black"/>
<path d="M142.816 74.1099L145.987 78.529L149.545 95.4293L147.891 96.8723L142.816 74.1099Z" fill="#6C63FF"/>
<path d="M163.918 103.58L164.795 103.615C164.809 103.359 164.851 103.104 164.922 102.857C165.054 102.23 165.172 101.485 164.625 101.487C164.253 101.452 164.127 101.922 164.061 102.433C164.044 102.819 163.996 103.202 163.918 103.58Z" fill="#2F2E41"/>
<path d="M158.887 102.4L159.478 102.422L159.764 102.433C159.758 102.12 159.904 101.474 159.549 101.314C159.493 101.29 159.432 101.278 159.371 101.278C159.038 101.259 158.939 101.512 158.909 101.804C158.889 101.98 158.898 102.166 158.892 102.312C158.892 102.342 158.889 102.373 158.887 102.4Z" fill="#2F2E41"/>
<path d="M157.137 102.328L157.731 102.353L158.014 102.364C158.008 102.004 158.198 101.218 157.621 101.207C157.087 101.176 157.156 101.855 157.142 102.24C157.142 102.271 157.139 102.301 157.137 102.328Z" fill="#2F2E41"/>
<path d="M155.383 102.26L155.974 102.282L156.26 102.293C156.254 101.935 156.444 101.149 155.867 101.138C155.333 101.105 155.402 101.784 155.388 102.172C155.388 102.202 155.386 102.232 155.383 102.26Z" fill="#2F2E41"/>
<path d="M153.633 102.188L154.227 102.213L154.51 102.224C154.504 101.864 154.694 101.08 154.117 101.066C153.583 101.036 153.652 101.715 153.638 102.1C153.638 102.131 153.636 102.161 153.633 102.188Z" fill="#2F2E41"/>
<path d="M151.883 102.12L152.474 102.142L152.76 102.153C152.754 101.823 152.914 101.132 152.49 101.014H152.488C152.448 101.003 152.408 100.997 152.367 100.998C152.317 100.993 152.267 100.998 152.218 101.011H152.216C151.847 101.108 151.899 101.685 151.888 102.032C151.888 102.062 151.886 102.092 151.883 102.12Z" fill="#2F2E41"/>
<path d="M162.152 101.932L163.029 101.968C163.029 101.935 163.029 101.899 163.032 101.858C163.054 101.649 163.058 101.438 163.043 101.229C163.013 100.998 162.914 100.816 162.636 100.811C162.353 100.794 162.24 100.976 162.196 101.209C162.186 101.249 162.179 101.289 162.174 101.33V101.333C162.152 101.547 162.166 101.778 162.152 101.932Z" fill="#2F2E41"/>
<path d="M160.398 101.861L161.276 101.897C161.294 101.661 161.3 101.424 161.292 101.187C161.267 100.945 161.171 100.748 160.882 100.742C160.591 100.723 160.478 100.921 160.434 101.165C160.393 101.402 160.415 101.685 160.398 101.861Z" fill="#2F2E41"/>
<path d="M158.648 101.792L158.91 101.803L159.526 101.828C159.523 101.696 159.548 101.503 159.55 101.314C159.553 101.257 159.551 101.2 159.545 101.143C159.523 100.888 159.432 100.676 159.132 100.67C158.827 100.654 158.72 100.866 158.681 101.124C158.643 101.355 158.665 101.622 158.648 101.792Z" fill="#2F2E41"/>
<path d="M162.168 103.511L163.045 103.544C163.042 103.186 163.229 102.4 162.652 102.389C162.074 102.353 162.201 103.15 162.168 103.511Z" fill="#2F2E41"/>
<path d="M160.414 103.439L161.291 103.475C161.288 103.115 161.475 102.328 160.898 102.317C160.321 102.284 160.447 103.082 160.414 103.439Z" fill="#2F2E41"/>
<path d="M158.664 103.371L159.541 103.404C159.538 103.148 159.635 102.675 159.478 102.422C159.444 102.366 159.395 102.32 159.337 102.29C159.279 102.259 159.213 102.245 159.148 102.249C159.058 102.239 158.967 102.262 158.892 102.312C158.612 102.496 158.692 103.079 158.664 103.371Z" fill="#2F2E41"/>
<path d="M156.914 103.299L157.791 103.335C157.788 103.079 157.882 102.609 157.731 102.353C157.697 102.296 157.647 102.25 157.589 102.219C157.53 102.188 157.464 102.173 157.398 102.177C157.308 102.167 157.217 102.19 157.142 102.24C156.862 102.43 156.942 103.01 156.914 103.299Z" fill="#2F2E41"/>
<path d="M155.16 103.23L156.037 103.263C156.035 103.008 156.131 102.535 155.974 102.282C155.94 102.226 155.891 102.18 155.833 102.15C155.775 102.119 155.71 102.105 155.644 102.109C155.554 102.099 155.464 102.121 155.388 102.172C155.108 102.356 155.188 102.939 155.16 103.23Z" fill="#2F2E41"/>
<path d="M153.41 103.159L154.287 103.194C154.285 102.939 154.378 102.469 154.227 102.213C154.193 102.156 154.144 102.109 154.085 102.078C154.027 102.047 153.96 102.033 153.894 102.037C153.804 102.027 153.713 102.049 153.638 102.1C153.358 102.29 153.438 102.87 153.41 103.159Z" fill="#2F2E41"/>
<path d="M151.66 103.09L152.537 103.123C152.534 102.868 152.628 102.397 152.474 102.142C152.44 102.085 152.391 102.04 152.333 102.009C152.275 101.978 152.21 101.964 152.144 101.968C152.054 101.959 151.964 101.981 151.888 102.032C151.608 102.219 151.688 102.799 151.66 103.09Z" fill="#2F2E41"/>
<path d="M161.565 100.548L168.25 86.4097L170.777 80.512L166.805 78.25C166.805 78.25 165.452 82.6271 164.038 84.8675C162.642 87.0783 158.891 99.2441 158.812 99.5769C158.402 99.7457 158.053 100.035 157.811 100.406C157.57 100.778 157.446 101.214 157.458 101.657C157.469 102.1 157.615 102.529 157.876 102.888C158.136 103.246 158.499 103.517 158.917 103.664C159.335 103.812 159.788 103.829 160.216 103.713C160.644 103.598 161.027 103.355 161.314 103.017C161.601 102.68 161.778 102.263 161.823 101.822C161.868 101.381 161.778 100.937 161.565 100.548H161.565Z" fill="#A0616A"/>
<path d="M161.525 87.4582L166.58 90.5083L167.727 88.7753L168.491 88.3814L171.651 82.9545L174.445 80.1076L178.137 68.3066L173.334 69.0273L173.327 69.0294C172.472 69.4832 171.706 70.2947 170.657 71.0098C167.35 73.2632 164.499 80.5651 163.141 84.6364C163.118 84.7032 163.027 84.7498 162.921 84.7953C162.417 85.0106 162.003 85.3931 161.749 85.8782C161.494 86.3634 161.415 86.9214 161.524 87.4582L161.525 87.4582Z" fill="#6C63FF"/>
</g>
<defs>
<clipPath id="clip0_159_897">
<rect width="235.132" height="160" fill="white"/>
</clipPath>
</defs>
</svg>
